<?xml version="1.0" standalone="no"?><!DOCTYPE svg PUBLIC "-//W3C//DTD SVG 1.1//EN" "http://www.w3.org/Graphics/SVG/1.1/DTD/svg11.dtd"><svg class="icon" width="200px" height="200.00px" viewBox="0 0 1024 1024" version="1.1" xmlns="http://www.w3.org/2000/svg"><path d="M522.666667 532.906667A223.573333 223.573333 0 1 0 298.666667 309.333333a223.573333 223.573333 0 0 0 224 223.573334z m0-384a159.573333 159.573333 0 1 1-159.573334 160.426666 160 160 0 0 1 159.573334-159.573333zM763.733333 585.813333H260.266667a174.933333 174.933333 0 0 0 0 349.866667h503.466666a174.933333 174.933333 0 1 0 0-349.866667z m0 286.293334H260.266667a111.36 111.36 0 0 1 0-222.72h503.466666a111.36 111.36 0 0 1 0 222.72z"  /><path d="M759.466667 728.746667h-191.573334a32 32 0 0 0 0 64h191.573334a32 32 0 0 0 0-64z"  /></svg>